<svg width="50" height="50" viewBox="0 0 50 50" fill="none" xmlns="http://www.w3.org/2000/svg">
<g clip-path="url(#clip0)">
<g filter="url(#filter0_d)">
<path d="M27.0833 14.5834H22.9167V22.9167H14.5833V27.0834H22.9167V35.4167H27.0833V27.0834H35.4167V22.9167H27.0833V14.5834ZM25 4.16669C13.5 4.16669 4.16667 13.5 4.16667 25C4.16667 36.5 13.5 45.8334 25 45.8334C36.5 45.8334 45.8333 36.5 45.8333 25C45.8333 13.5 36.5 4.16669 25 4.16669ZM25 41.6667C15.8125 41.6667 8.33333 34.1875 8.33333 25C8.33333 15.8125 15.8125 8.33335 25 8.33335C34.1875 8.33335 41.6667 15.8125 41.6667 25C41.6667 34.1875 34.1875 41.6667 25 41.6667Z" fill="#3282B8"/>
</g>
</g>
<defs>
<filter id="filter0_d" x="0.166668" y="4.16669" width="49.6667" height="49.6667" filterUnits="userSpaceOnUse" color-interpolation-filters="sRGB">
<feFlood flood-opacity="0" result="BackgroundImageFix"/>
<feColorMatrix in="SourceAlpha" type="matrix" values="0 0 0 0 0 0 0 0 0 0 0 0 0 0 0 0 0 0 127 0"/>
<feOffset dy="4"/>
<feGaussianBlur stdDeviation="2"/>
<feColorMatrix type="matrix" values="0 0 0 0 0 0 0 0 0 0 0 0 0 0 0 0 0 0 0.25 0"/>
<feBlend mode="normal" in2="BackgroundImageFix" result="effect1_dropShadow"/>
<feBlend mode="normal" in="SourceGraphic" in2="effect1_dropShadow" result="shape"/>
</filter>
<clipPath id="clip0">
<rect width="50" height="50" fill="white"/>
</clipPath>
</defs>
</svg>
