<svg width="26" height="25" viewBox="0 0 26 25" fill="none" xmlns="http://www.w3.org/2000/svg">
<path d="M25.3321 2.23966C24.7027 1.43729 23.7423 0.97715 22.697 0.97715H22.2545V0.733016C22.2545 0.328534 21.9135 0.000613402 21.4928 0.000613402C21.0722 0.000613402 20.7311 0.328534 20.7311 0.733016V2.68609C20.7311 3.09057 21.0722 3.41849 21.4928 3.41849C21.9135 3.41849 22.2545 3.09057 22.2545 2.68609V2.44195H22.697C23.2598 2.44195 23.777 2.68975 24.1159 3.12177C24.4548 3.55379 24.5605 4.10002 24.4059 4.62036L22.3843 11.424C21.8201 13.3226 19.9918 14.6486 17.9382 14.6486C15.8847 14.6486 14.0564 13.3226 13.4922 11.424L11.4706 4.62031C11.316 4.09997 11.4217 3.55374 11.7606 3.12172C12.0995 2.68965 12.6167 2.44191 13.1795 2.44191H13.622V2.68604C13.622 3.09052 13.963 3.41844 14.3836 3.41844C14.8043 3.41844 15.1453 3.09052 15.1453 2.68604V0.732967C15.1453 0.328485 14.8043 0.000564575 14.3836 0.000564575C13.963 0.000564575 13.622 0.328485 13.622 0.732967V0.977101H13.1795C12.1343 0.977101 11.1738 1.43729 10.5444 2.23962C9.91492 3.04199 9.71866 4.05636 10.0058 5.0227L12.0275 11.8263C12.3974 13.0714 13.1613 14.1416 14.2364 14.9215C14.4668 15.0886 14.7072 15.2378 14.9551 15.3707L17.1766 20.4124V20.941C17.1766 22.3714 15.9664 23.5351 14.4788 23.5351C12.9912 23.5351 11.7809 22.3714 11.7809 20.941V15.9181C11.7809 13.6027 9.82184 11.719 7.41386 11.719C5.00588 11.719 3.04679 13.6027 3.04679 15.9181V17.6519C1.31053 17.9921 0 19.4717 0 21.2402C0 23.2595 1.70849 24.9022 3.80849 24.9022C5.90849 24.9022 7.61698 23.2595 7.61698 21.2402C7.61698 19.4718 6.30645 17.9922 4.57019 17.6519V15.9181C4.57019 14.4104 5.84588 13.1838 7.41386 13.1838C8.98184 13.1838 10.2575 14.4104 10.2575 15.9181V20.941C10.2575 23.1791 12.1512 24.9999 14.4788 24.9999C16.8064 24.9999 18.7 23.1791 18.7 20.941V20.4124L20.9216 15.3707C21.1695 15.2378 21.4098 15.0886 21.6402 14.9215C22.7153 14.1417 23.4791 13.0714 23.8491 11.8263L25.8708 5.0227C26.1579 4.05641 25.9616 3.04199 25.3321 2.23966ZM6.09358 21.2402C6.09358 22.4518 5.06849 23.4374 3.80849 23.4374C2.54849 23.4374 1.5234 22.4518 1.5234 21.2402C1.5234 20.0287 2.54849 19.043 3.80849 19.043C5.06849 19.043 6.09358 20.0287 6.09358 21.2402ZM17.9383 18.3863L16.8997 16.0292C17.2398 16.0847 17.5867 16.1134 17.9383 16.1134C18.2899 16.1134 18.6368 16.0847 18.9769 16.0292L17.9383 18.3863Z" fill="#BBE1FA"/>
</svg>
