<svg width="34" height="31" viewBox="0 0 34 31" fill="none" xmlns="http://www.w3.org/2000/svg">
<path d="M13.6325 6.36082C11.4137 5.61851 5.56358 6.96047 4.76139 10.0999C3.74458 14.0791 6.20214 14.6882 7.30369 16.8994C7.76216 17.8197 7.30927 20.2803 7.29227 20.9558C7.27102 21.8005 7.76588 24.4304 11.3994 24.0507C13.4001 23.8417 14.0514 22.5217 14.173 21.3379C14.2973 20.1297 13.8527 18.9303 13.0136 17.9882C12.3878 17.2859 11.6413 16.4259 11.4984 16.1651C11.2442 15.7015 10.5664 13.4608 13.1509 11.5291C15.477 9.79067 16.3302 7.26321 13.6325 6.36082Z" fill="#BBE1FA"/>
<path d="M8.0699 6.02278C8.63169 5.94086 8.98459 5.28996 8.85812 4.56894C8.73166 3.84792 8.17372 3.32983 7.61193 3.41174C7.05015 3.49365 6.69725 4.14456 6.82371 4.86558C6.95017 5.58659 7.50811 6.10469 8.0699 6.02278Z" fill="#BBE1FA"/>
<path d="M10.6707 5.44221C11.3634 5.44221 11.925 4.72928 11.925 3.84983C11.925 2.97038 11.3634 2.25745 10.6707 2.25745C9.978 2.25745 9.41644 2.97038 9.41644 3.84983C9.41644 4.72928 9.978 5.44221 10.6707 5.44221Z" fill="#BBE1FA"/>
<path d="M14.4022 5.61846C15.3851 5.61846 16.1819 4.6068 16.1819 3.35885C16.1819 2.1109 15.3851 1.09924 14.4022 1.09924C13.4194 1.09924 12.6226 2.1109 12.6226 3.35885C12.6226 4.6068 13.4194 5.61846 14.4022 5.61846Z" fill="#BBE1FA"/>
<path d="M6.19192 6.944C6.56423 6.82207 6.71346 6.33591 6.52524 5.85812C6.33701 5.38034 5.88261 5.09187 5.51031 5.2138C5.138 5.33573 4.98877 5.82189 5.17699 6.29967C5.36522 6.77746 5.81962 7.06593 6.19192 6.944Z" fill="#BBE1FA"/>
<path d="M4.56808 8.26419C4.94039 8.14226 5.08962 7.6561 4.9014 7.17831C4.71317 6.70053 4.25877 6.41205 3.88647 6.53399C3.51416 6.65592 3.36493 7.14208 3.55315 7.61986C3.74138 8.09765 4.19578 8.38612 4.56808 8.26419Z" fill="#BBE1FA"/>
<path d="M19.3054 11.2046C21.5242 10.4623 27.3743 11.8042 28.1765 14.9437C29.1933 18.9228 26.7358 19.5319 25.6342 21.7431C25.1758 22.6634 25.6286 25.1241 25.6456 25.7995C25.6669 26.6443 25.172 29.2742 21.5385 28.8944C19.5379 28.6854 18.8865 27.3655 18.7649 26.1817C18.6406 24.9734 19.0852 23.7741 19.9243 22.832C20.5502 22.1296 21.2966 21.2696 21.4395 21.0088C21.6937 20.5453 22.3715 18.3045 19.787 16.3728C17.4607 14.6344 16.6075 12.107 19.3054 11.2046Z" fill="#6DC9F7"/>
<path d="M26.1336 9.70132C26.2601 8.98031 25.9072 8.3294 25.3454 8.24749C24.7836 8.16557 24.2257 8.68367 24.0992 9.40469C23.9728 10.1257 24.3257 10.7766 24.8874 10.8585C25.4492 10.9404 26.0072 10.4223 26.1336 9.70132Z" fill="#6DC9F7"/>
<path d="M22.2671 10.286C22.9598 10.286 23.5214 9.57303 23.5214 8.69358C23.5214 7.81413 22.9598 7.1012 22.2671 7.1012C21.5744 7.1012 21.0128 7.81413 21.0128 8.69358C21.0128 9.57303 21.5744 10.286 22.2671 10.286Z" fill="#6DC9F7"/>
<path d="M18.5354 10.4622C19.5183 10.4622 20.3151 9.45055 20.3151 8.2026C20.3151 6.95465 19.5183 5.94299 18.5354 5.94299C17.5525 5.94299 16.7557 6.95465 16.7557 8.2026C16.7557 9.45055 17.5525 10.4622 18.5354 10.4622Z" fill="#6DC9F7"/>
<path d="M27.7492 11.1392C27.9374 10.6614 27.7882 10.1752 27.4159 10.0533C27.0436 9.93139 26.5892 10.2199 26.4009 10.6976C26.2127 11.1754 26.3619 11.6616 26.7342 11.7835C27.1066 11.9054 27.561 11.617 27.7492 11.1392Z" fill="#6DC9F7"/>
<path d="M29.372 12.4593C29.5603 11.9815 29.411 11.4953 29.0387 11.3734C28.6664 11.2515 28.212 11.5399 28.0238 12.0177C27.8356 12.4955 27.9848 12.9817 28.3571 13.1036C28.7294 13.2255 29.1838 12.937 29.372 12.4593Z" fill="#6DC9F7"/>
</svg>
