<svg width="36" height="30" viewBox="0 0 36 30" fill="none" xmlns="http://www.w3.org/2000/svg">
<g clip-path="url(#clip0)">
<path d="M18 8.27586C20.7424 8.27586 22.9655 6.42325 22.9655 4.13793C22.9655 1.85261 20.7424 0 18 0C15.2576 0 13.0345 1.85261 13.0345 4.13793C13.0345 6.42325 15.2576 8.27586 18 8.27586Z" fill="#BBE1FA"/>
<path d="M18.6207 21.2069V29.2966C18.2215 28.9194 18.0009 28.434 18 27.9311C17.9992 28.434 17.7785 28.9194 17.3793 29.2966V21.2069C17.3793 20.9213 17.6572 20.6897 18 20.6897C18.3428 20.6897 18.6207 20.9213 18.6207 21.2069Z" fill="#2980BA"/>
<path d="M27.931 12.4138V16.5517C27.9324 17.2913 27.4593 17.9751 26.6904 18.3446C25.9216 18.7141 24.9744 18.7129 24.2069 18.3414C24.0197 18.2509 23.8467 18.1415 23.6917 18.0155C23.2277 17.6264 22.9667 17.1003 22.9655 16.5517V27.931C22.9663 28.7684 22.3614 29.5235 21.4331 29.8441C20.5049 30.1646 19.4363 29.9872 18.7262 29.3948C18.6878 29.3646 18.6525 29.3317 18.6207 29.2966C18.2215 28.9194 18.0009 28.434 18 27.931C18 29.0737 16.8884 30 15.5172 30C14.1461 30 13.0345 29.0737 13.0345 27.931V16.5517C13.0311 17.6932 11.9215 18.6179 10.5517 18.6207C9.89301 18.6214 9.26103 18.4036 8.79524 18.0155C8.32946 17.6273 8.06815 17.1007 8.06897 16.5517V12.4138C8.06897 10.1285 10.2921 8.27588 13.0345 8.27588H22.9655C25.7079 8.27588 27.931 10.1285 27.931 12.4138Z" fill="#BBE1FA"/>
<path d="M24.2069 12.4137V18.3413C24.0197 18.2508 23.8466 18.1414 23.6917 18.0155C23.2277 17.6263 22.9667 17.1003 22.9655 16.5517V12.4137C22.9655 12.1281 23.2434 11.8965 23.5862 11.8965C23.929 11.8965 24.2069 12.1281 24.2069 12.4137Z" fill="#2980BA"/>
<path d="M18.6207 21.2068V29.2965C18.2215 28.9193 18.0009 28.4339 18 27.931C17.9992 28.4339 17.7785 28.9193 17.3793 29.2965V21.2068C17.3793 20.9212 17.6572 20.6896 18 20.6896C18.3428 20.6896 18.6207 20.9212 18.6207 21.2068Z" fill="#2980BA"/>
<path d="M13.0345 12.4137V16.5517C13.0361 17.2906 12.5624 17.9737 11.7931 18.3413V12.4137C11.7931 12.1281 12.071 11.8965 12.4138 11.8965C12.7566 11.8965 13.0345 12.1281 13.0345 12.4137Z" fill="#2980BA"/>
<path d="M35.2552 25.862H34.1379V4.1379H35.2552C35.5221 4.15807 35.778 4.04466 35.9072 3.84896C36.0364 3.65327 36.0144 3.4124 35.851 3.23531L32.8717 0.225485C32.7214 0.0822023 32.5042 0 32.2759 0C32.0475 0 31.8303 0.0822023 31.68 0.225485L28.7007 3.23531C28.5373 3.4124 28.5153 3.65327 28.6445 3.84896C28.7737 4.04466 29.0296 4.15807 29.2965 4.1379H30.4138V25.862H29.2965C29.0296 25.8419 28.7737 25.9553 28.6445 26.151C28.5153 26.3467 28.5373 26.5875 28.7007 26.7646L31.68 29.7745C31.8303 29.9177 32.0475 29.9999 32.2759 29.9999C32.5042 29.9999 32.7214 29.9177 32.8717 29.7745L35.851 26.7646C36.0144 26.5875 36.0364 26.3467 35.9072 26.151C35.778 25.9553 35.5221 25.8419 35.2552 25.862Z" fill="#6DC9F7"/>
</g>
<defs>
<clipPath id="clip0">
<rect width="36" height="30" fill="white"/>
</clipPath>
</defs>
</svg>
