<svg width="38" height="36" viewBox="0 0 38 36" fill="none" xmlns="http://www.w3.org/2000/svg">
<path d="M24.7917 16.1034C27.3638 16.1034 29.4246 14.1417 29.4246 11.7115C29.4246 9.28139 27.3638 7.31971 24.7917 7.31971C22.2195 7.31971 20.1432 9.28139 20.1432 11.7115C20.1432 14.1417 22.2195 16.1034 24.7917 16.1034ZM12.3959 16.1034C14.968 16.1034 17.0288 14.1417 17.0288 11.7115C17.0288 9.28139 14.968 7.31971 12.3959 7.31971C9.82372 7.31971 7.74742 9.28139 7.74742 11.7115C7.74742 14.1417 9.82372 16.1034 12.3959 16.1034ZM12.3959 19.0312C8.78557 19.0312 1.5495 20.7441 1.5495 24.155V27.8149H23.2422V24.155C23.2422 20.7441 16.0061 19.0312 12.3959 19.0312ZM24.7917 19.0312C24.3423 19.0312 23.831 19.0605 23.2887 19.1044C25.0861 20.3342 26.3412 21.9884 26.3412 24.155V27.8149H35.638V24.155C35.638 20.7441 28.402 19.0312 24.7917 19.0312Z" fill="#BBE1FA"/>
</svg>
