<svg width="29" height="29" viewBox="0 0 29 29" fill="none" xmlns="http://www.w3.org/2000/svg">
<g clip-path="url(#clip0)">
<path d="M18.4063 15.7081C16.4077 15.7081 14.7813 14.0817 14.7813 12.0831C14.7813 10.0846 16.4077 8.45817 18.4063 8.45817H20.8227V3.62496C20.8227 1.62641 19.1963 0 17.1978 0H4.20841C3.81082 0 3.43868 0.195585 3.21279 0.523035C2.98799 0.850485 2.93733 1.26754 3.07981 1.63836L11.8402 24.5966C12.0179 25.0654 12.4672 25.3747 12.9688 25.3747H17.1978C19.1963 25.3747 20.8227 23.7483 20.8227 21.7498V15.7081H18.4063Z" fill="#BBE1FA"/>
<path d="M22.4954 18.0334C22.0447 17.846 21.7497 17.405 21.7497 16.9167V13.2918H16.9165C16.2495 13.2918 15.7081 12.7506 15.7081 12.0835C15.7081 11.4164 16.2495 10.8753 16.9165 10.8753H21.7497V7.2503C21.7497 6.762 22.0447 6.32105 22.4954 6.13365C22.9472 5.94647 23.4669 6.05046 23.8122 6.39605L28.6457 11.2293C29.118 11.7016 29.118 12.4654 28.6457 12.9378L23.8122 17.7712C23.4669 18.1166 22.9472 18.2205 22.4954 18.0334Z" fill="#5FB3EA"/>
<path d="M10.4472 2.54057L3.18644 0.120318C1.54787 -0.383469 0 0.826106 0 2.41734V24.1671C0 25.2003 0.657334 26.1223 1.63614 26.4606L8.89558 28.8808C9.16263 28.9629 9.408 29.0005 9.66664 29.0005C10.9995 29.0005 12.0831 27.9166 12.0831 26.5838V4.83405C12.0831 3.80103 11.4258 2.87909 10.4472 2.54057V2.54057Z" fill="#5FB3EA"/>
</g>
<defs>
<clipPath id="clip0">
<rect width="29" height="29" fill="white"/>
</clipPath>
</defs>
</svg>
