<svg width="28" height="27" viewBox="0 0 28 27" fill="none" xmlns="http://www.w3.org/2000/svg">
<path d="M27.1603 16.4589L24.5866 14.5183C24.6664 13.841 24.6664 13.1571 24.5866 12.4798L27.1626 10.5381C27.6454 10.1632 27.7744 9.50582 27.4671 8.9867L24.7896 4.52386C24.4813 4.00147 23.8245 3.77335 23.2415 3.98613L20.2082 5.16289C19.6382 4.76412 19.0276 4.42224 18.3858 4.14254L17.9203 1.03528C17.8364 0.438754 17.3056 -0.00463511 16.6813 0.000269169H11.3147C10.6956 -0.00331675 10.1691 0.435115 10.0827 1.02627L9.61605 4.14249C8.97626 4.42488 8.36666 4.76702 7.79606 5.164L4.75452 3.98497C4.17757 3.76565 3.52137 3.99103 3.21802 4.51257L0.538181 8.98333C0.22269 9.50328 0.352572 10.1679 0.84268 10.5415L3.41632 12.4821C3.33576 13.1593 3.33576 13.8433 3.41632 14.5206L0.840328 16.4612C0.356783 16.8355 0.227174 17.4933 0.534681 18.0126L3.21102 22.4766C3.51902 22.9993 4.1762 23.2276 4.75916 23.0143L7.7925 21.8375C8.363 22.2365 8.97397 22.5788 9.616 22.8591L10.0826 25.964C10.1648 26.559 10.6922 27.0026 11.3146 27.0002H16.6813C17.3015 27.005 17.8297 26.5664 17.9168 25.9742L18.3834 22.8579C19.0231 22.5755 19.6327 22.2333 20.2034 21.8364L23.2484 23.0166C23.8253 23.2354 24.4812 23.0101 24.7849 22.489L27.4729 18.0002C27.7738 17.4819 27.6415 16.8297 27.1603 16.4589ZM13.998 19.1252C10.7764 19.1252 8.16465 16.6068 8.16465 13.5002C8.16465 10.3935 10.7763 7.87517 13.998 7.87517C17.2197 7.87517 19.8313 10.3935 19.8313 13.5002C19.8274 16.6053 17.218 19.1215 13.998 19.1252Z" fill="#BBE1FA"/>
</svg>
