<svg width="55" height="55" viewBox="0 0 55 55" fill="none" xmlns="http://www.w3.org/2000/svg">
<g filter="url(#filter0_i)">
<path d="M27.5 55C42.6878 55 55 42.6878 55 27.5C55 12.3122 42.6878 0 27.5 0C12.3122 0 0 12.3122 0 27.5C0 42.6878 12.3122 55 27.5 55Z" fill="#69B0EE"/>
<path d="M16.8883 26.2904L30.6837 12.4952C31.0028 12.1759 31.4287 12 31.8829 12C32.337 12 32.763 12.1759 33.0821 12.4952L34.098 13.5109C34.7591 14.1728 34.7591 15.2484 34.098 15.9092L22.5137 27.4936L34.1108 39.0908C34.4299 39.4101 34.6061 39.8358 34.6061 40.2897C34.6061 40.7441 34.4299 41.1698 34.1108 41.4893L33.0949 42.5048C32.7756 42.8241 32.3499 43 31.8957 43C31.4416 43 31.0157 42.8241 30.6966 42.5048L16.8883 28.697C16.5685 28.3767 16.3928 27.949 16.3939 27.4943C16.3928 27.0379 16.5685 26.6105 16.8883 26.2904Z" fill="#BBE1FA"/>
</g>
<defs>
<filter id="filter0_i" x="0" y="0" width="55" height="59" filterUnits="userSpaceOnUse" color-interpolation-filters="sRGB">
<feFlood flood-opacity="0" result="BackgroundImageFix"/>
<feBlend mode="normal" in="SourceGraphic" in2="BackgroundImageFix" result="shape"/>
<feColorMatrix in="SourceAlpha" type="matrix" values="0 0 0 0 0 0 0 0 0 0 0 0 0 0 0 0 0 0 127 0" result="hardAlpha"/>
<feOffset dy="4"/>
<feGaussianBlur stdDeviation="2"/>
<feComposite in2="hardAlpha" operator="arithmetic" k2="-1" k3="1"/>
<feColorMatrix type="matrix" values="0 0 0 0 0 0 0 0 0 0 0 0 0 0 0 0 0 0 0.25 0"/>
<feBlend mode="normal" in2="shape" result="effect1_innerShadow"/>
</filter>
</defs>
</svg>
