<svg width="24" height="23" viewBox="0 0 24 23" fill="none" xmlns="http://www.w3.org/2000/svg">
<path d="M12 23C18.6274 23 24 17.8513 24 11.5C24 5.14873 18.6274 0 12 0C5.37258 0 0 5.14873 0 11.5C0 17.8513 5.37258 23 12 23Z" fill="#6DC9F7"/>
<path d="M22.4209 17.2063L15.1315 10.2206L15.108 10.3453L11.4832 6.87158L7.6288 8.69694L5.79608 17.8954L11.0885 22.9673C11.3894 22.9889 11.6934 23 12 23C16.4605 23 20.3526 20.6677 22.4209 17.2063Z" fill="#0089EF"/>
<path d="M14.3276 8.90105L22.6241 16.8519C23.5027 15.2533 24 13.4323 24 11.5C24 10.495 23.8655 9.52017 23.6128 8.59105L18.4288 3.62305L13.781 4.9707L15.8493 6.95284L14.3276 8.90105Z" fill="#0089EF"/>
<path d="M13.9028 16.8524C10.8719 16.8524 8.41481 14.4977 8.41481 11.5931C8.41481 9.52076 9.66572 7.72865 11.4832 6.87163C11.2745 6.85334 11.0633 6.84351 10.8495 6.84351C7.05333 6.84351 3.97589 9.79272 3.97589 13.4308C3.97589 17.0688 7.05333 20.018 10.8495 20.018C13.8022 20.018 16.3197 18.2337 17.2929 15.7291C16.3596 16.4327 15.1823 16.8524 13.9028 16.8524Z" fill="white"/>
<path d="M13.9028 16.8524C12.0855 16.8524 10.4748 16.0057 9.47603 14.7017L5.27832 17.2891C6.52712 18.9423 8.55713 20.0181 10.8496 20.0181C13.8023 20.0181 16.3197 18.2338 17.2929 15.7291C16.3596 16.4327 15.1824 16.8524 13.9028 16.8524Z" fill="#E9EDF5"/>
<path d="M19.1319 8.90105H14.3275L13.8304 7.75078L16.7313 4.9707H13.7809V3.62305H18.4287L18.9259 4.77336L16.025 7.5534H19.1319V8.90105Z" fill="#FFCE00"/>
<path d="M18.926 4.77336L18.4288 3.62305H16.2131V4.9707H16.7313L16.2131 5.46731V7.37317L18.926 4.77336Z" fill="#FDBA12"/>
<path d="M16.2131 7.55334H19.1319V8.901H16.2131V7.55334Z" fill="#FDBA12"/>
<path d="M15.8346 14.5693H12L11.5028 13.4191L13.4339 11.5684H11.4164V10.2207H15.1315L15.6286 11.371L13.6975 13.2217H15.8346V14.5693Z" fill="#FFCE00"/>
<path d="M15.8346 13.2217H13.6975L15.6286 11.371L15.1315 10.2207H13.4175V11.5684H13.4339L13.4175 11.5841V14.5693H15.8346V13.2217Z" fill="#FDBA12"/>
</svg>
