<svg width="25" height="25" viewBox="0 0 25 25" fill="none" xmlns="http://www.w3.org/2000/svg">
<path d="M22.1059 24.1366H2.89409C1.43377 24.1366 0.25 22.9528 0.25 21.4925V3.50749C0.25 2.04722 1.43377 0.863403 2.89409 0.863403H22.1059C23.5662 0.863403 24.75 2.04718 24.75 3.50749V21.4925C24.75 22.9528 23.5662 24.1366 22.1059 24.1366Z" fill="#2980BA" stroke="#6DC9F7" stroke-width="0.5"/>
<path d="M0 13.9883V21.4926C0 23.0909 1.2957 24.3866 2.89409 24.3866H22.1059C23.7043 24.3866 25 23.0909 25 21.4926V13.9883H0Z" fill="#6DC9F7"/>
<path d="M16.0213 6.93307H8.97869C8.57688 6.93307 8.2511 6.60734 8.2511 6.20549V3.43498C8.2511 3.03318 8.57683 2.7074 8.97869 2.7074H16.0212C16.423 2.7074 16.7488 3.03313 16.7488 3.43498V6.20549C16.7488 6.60734 16.4231 6.93307 16.0213 6.93307Z" fill="white"/>
<path d="M15.2167 6.93305C15.2167 5.43266 14.0004 4.21631 12.4999 4.21631C10.9995 4.21631 9.7832 5.43261 9.7832 6.93305H15.2167Z" fill="#6DC9F7"/>
<path d="M12.4996 7.29929C12.436 7.29929 12.3714 7.28269 12.3127 7.24773C12.1389 7.14431 12.0819 6.91956 12.1853 6.74578L13.7365 4.139C13.8399 3.96512 14.0646 3.90809 14.2385 4.01155C14.4123 4.11497 14.4694 4.33973 14.366 4.51351L12.8147 7.12029C12.7462 7.23543 12.6245 7.29929 12.4996 7.29929Z" fill="#1B262C"/>
<path d="M16.0213 7.29931H8.9787C8.37557 7.29931 7.88495 6.80864 7.88495 6.20556V3.43511C7.88495 2.83193 8.37562 2.34131 8.9787 2.34131H16.0212C16.6243 2.34131 17.115 2.83198 17.115 3.43511V6.20556C17.115 6.80859 16.6243 7.29931 16.0213 7.29931ZM8.9787 3.07368C8.77943 3.07368 8.61737 3.23579 8.61737 3.43506V6.20551C8.61737 6.40478 8.77948 6.56684 8.9787 6.56684H16.0212C16.2205 6.56684 16.3825 6.40478 16.3825 6.20551V3.43511C16.3825 3.23584 16.2204 3.07373 16.0212 3.07373L8.9787 3.07368Z" fill="#0089EF"/>
<path d="M6.38687 21.3646C4.71534 19.6472 3.00177 16.6443 3.60191 12.1485C3.80792 10.6053 4.93101 9.17981 6.57056 9.17981C8.2101 9.17981 9.32612 10.3825 9.5392 12.1485C9.708 13.5476 9.35136 14.4854 9.06288 15.6976C8.6644 17.3719 9.68774 18.4998 9.68774 19.9974C9.68774 21.0653 8.82202 21.931 7.75415 21.931C7.22016 21.931 6.73677 21.7146 6.38687 21.3646Z" fill="#0089EF"/>
<path opacity="0.1" d="M7.75411 21.1986C7.43472 21.1986 7.13443 21.0748 6.90792 20.8499C5.98785 19.9035 5.28863 18.7917 4.82985 17.5454C4.24088 15.9456 4.07199 14.1624 4.32794 12.2453C4.48268 11.086 5.30274 9.91223 6.57056 9.91223C7.79854 9.91223 8.63648 10.781 8.81206 12.2362C8.93438 13.25 8.74727 13.9742 8.5104 14.8912C8.45767 15.0952 8.40318 15.3062 8.35039 15.528C8.071 16.7019 8.36973 17.6425 8.63325 18.4724C8.79888 18.994 8.95532 19.4866 8.95532 19.9974C8.95528 20.6597 8.41646 21.1986 7.75411 21.1986Z" fill="#0089EF"/>
<path d="M18.6131 21.3646C20.2846 19.6472 21.9982 16.6443 21.398 12.1485C21.192 10.6053 20.0689 9.17981 18.4293 9.17981C16.7898 9.17981 15.6738 10.3825 15.4607 12.1485C15.2919 13.5476 15.6485 14.4854 15.9371 15.6976C16.3355 17.3719 15.3123 18.4998 15.3123 19.9974C15.3123 21.0653 16.1779 21.931 17.2458 21.931C17.7798 21.931 18.2632 21.7146 18.6131 21.3646Z" fill="#0089EF"/>
<path opacity="0.1" d="M17.2458 21.1986C16.5835 21.1986 16.0446 20.6598 16.0446 19.9974C16.0446 19.4865 16.2011 18.9939 16.3667 18.4724C16.6303 17.6425 16.9289 16.7019 16.6495 15.528C16.5967 15.3062 16.5422 15.0952 16.4895 14.8912C16.2526 13.9742 16.0655 13.25 16.1879 12.2362C16.3635 10.781 17.2014 9.91223 18.4294 9.91223C19.6972 9.91223 20.5173 11.086 20.672 12.2453C20.9279 14.1624 20.7591 15.9456 20.1701 17.5454C19.7113 18.7916 19.0121 19.9035 18.092 20.8499C17.8655 21.0748 17.5651 21.1986 17.2458 21.1986Z" fill="#0089EF"/>
<path d="M5.58155 4.3008C5.99682 4.3008 6.33346 3.96417 6.33346 3.5489C6.33346 3.13364 5.99682 2.797 5.58155 2.797C5.16629 2.797 4.82965 3.13364 4.82965 3.5489C4.82965 3.96417 5.16629 4.3008 5.58155 4.3008Z" fill="#0089EF"/>
<path d="M2.7762 4.3008C3.19146 4.3008 3.5281 3.96417 3.5281 3.5489C3.5281 3.13364 3.19146 2.797 2.7762 2.797C2.36093 2.797 2.02429 3.13364 2.02429 3.5489C2.02429 3.96417 2.36093 4.3008 2.7762 4.3008Z" fill="#0089EF"/>
<path d="M5.58155 6.8716C5.99682 6.8716 6.33346 6.53496 6.33346 6.1197C6.33346 5.70444 5.99682 5.3678 5.58155 5.3678C5.16629 5.3678 4.82965 5.70444 4.82965 6.1197C4.82965 6.53496 5.16629 6.8716 5.58155 6.8716Z" fill="#0089EF"/>
<path d="M2.7762 6.8716C3.19146 6.8716 3.5281 6.53496 3.5281 6.1197C3.5281 5.70444 3.19146 5.3678 2.7762 5.3678C2.36093 5.3678 2.02429 5.70444 2.02429 6.1197C2.02429 6.53496 2.36093 6.8716 2.7762 6.8716Z" fill="#0089EF"/>
<path d="M19.4185 4.3008C19.8337 4.3008 20.1704 3.96417 20.1704 3.5489C20.1704 3.13364 19.8337 2.797 19.4185 2.797C19.0032 2.797 18.6666 3.13364 18.6666 3.5489C18.6666 3.96417 19.0032 4.3008 19.4185 4.3008Z" fill="#0089EF"/>
<path d="M22.2236 4.3008C22.6388 4.3008 22.9755 3.96417 22.9755 3.5489C22.9755 3.13364 22.6388 2.797 22.2236 2.797C21.8083 2.797 21.4717 3.13364 21.4717 3.5489C21.4717 3.96417 21.8083 4.3008 22.2236 4.3008Z" fill="#0089EF"/>
<path d="M19.4185 6.8716C19.8337 6.8716 20.1704 6.53496 20.1704 6.1197C20.1704 5.70444 19.8337 5.3678 19.4185 5.3678C19.0032 5.3678 18.6666 5.70444 18.6666 6.1197C18.6666 6.53496 19.0032 6.8716 19.4185 6.8716Z" fill="#0089EF"/>
<path d="M22.2236 6.8716C22.6388 6.8716 22.9755 6.53496 22.9755 6.1197C22.9755 5.70444 22.6388 5.3678 22.2236 5.3678C21.8083 5.3678 21.4717 5.70444 21.4717 6.1197C21.4717 6.53496 21.8083 6.8716 22.2236 6.8716Z" fill="#0089EF"/>
</svg>
